<svg width="1348" height="1180" viewBox="0 0 1348 1180" fill="none" xmlns="http://www.w3.org/2000/svg">
<path d="M122.278 521.6C129.478 521.6 131.078 516 131.078 507.6V455.6H197.478V510C197.478 546 178.678 580 128.278 580H117.078C62.6781 580 43.4781 549.6 43.4781 502.8L43.4781 370C43.4781 327.6 63.4781 295.2 115.478 295.2H128.278C177.878 295.2 197.478 322.8 197.478 362V405.2H131.078V364.4C131.078 356.4 129.478 352 122.278 352C115.478 352 113.478 355.6 113.478 364.4L113.478 507.6C113.478 516.4 115.478 521.6 122.278 521.6ZM215.178 298.4H335.978V360H282.378V400.8H325.578V464H282.378V513.2H339.178L339.178 576H215.178L215.178 298.4ZM432.409 480L424.409 403.6L416.809 480H432.409ZM410.809 538L407.209 576H348.809L384.809 298.4H468.009L507.609 576H442.409L438.409 538H410.809ZM603.841 380.8V354C603.841 348 601.841 343.6 595.441 343.6C588.641 343.6 587.041 347.6 587.041 354V362.8C587.041 371.2 588.241 376 595.841 382.4L639.841 417.6C662.641 436.4 672.641 456.4 672.641 485.2V508.4C672.641 551.2 645.441 579.6 601.441 579.6H585.041C540.641 579.6 516.241 559.6 516.241 517.2V474.8H583.441V509.6C583.441 518 585.041 522.8 591.841 522.8H592.641C599.041 522.8 600.641 517.6 600.641 509.2V498.4C600.641 484.8 599.841 479.2 587.041 468.8L551.041 440.4C530.241 424.4 518.641 404.4 518.641 371.2V357.2C518.641 319.6 541.041 294.8 587.441 294.8H602.641C649.041 294.8 668.241 316.8 668.241 351.2V380.8H603.841ZM688.006 298.4H808.806V360H755.206V400.8H798.406V464H755.206V513.2H812.006V576H688.006V298.4ZM828.038 576V298.4L948.838 298.4V360H895.238V400.8L936.038 400.8V464L895.238 464V576H828.038ZM1032.14 298.4V576L964.944 576V298.4H1032.14ZM1118.66 348.4V408.8H1125.86C1132.26 408.8 1135.46 405.6 1135.46 397.6V360.4C1135.46 352 1133.86 348.4 1126.66 348.4H1118.66ZM1118.66 464.4V576H1051.46V298.4H1154.66C1184.66 298.4 1203.06 316.8 1203.06 349.2V381.6C1203.06 407.6 1189.46 420.8 1177.86 426C1192.26 431.6 1203.46 445.6 1203.46 463.6V556C1203.46 563.2 1205.06 570 1207.06 574V576H1140.26C1137.46 572 1135.46 565.2 1135.46 557.2V476.8C1135.46 468.8 1133.46 464.4 1125.86 464.4H1118.66ZM1221.57 298.4H1342.37V360H1288.77V400.8H1331.97V464H1288.77V513.2H1345.57V576H1221.57V298.4Z" fill="#D33562"/>
<path d="M103.6 62.4V278H36.4V62.4H2V0.399998H137.6V62.4H103.6ZM153.053 278V0.399998H220.253V98.4H239.453V0.399998H306.653V278H239.453V168.8H220.253V278H153.053ZM325.897 0.399998H446.697V62H393.097V102.8H436.297V166H393.097V215.2H449.897V278H325.897V0.399998Z" fill="#D33562"/>
<path d="M326.228 764.8H295.828V870H229.428V592.4H324.628C360.228 592.4 378.628 610.4 378.628 648.8V708C378.628 744.8 357.828 764.8 326.228 764.8ZM295.828 710.8H302.228C309.828 710.8 311.828 706.4 311.828 698.4V656.4C311.828 648.4 310.628 644 302.228 644H295.828V710.8ZM462.441 642.4V702.8H469.641C476.041 702.8 479.241 699.6 479.241 691.6V654.4C479.241 646 477.641 642.4 470.441 642.4H462.441ZM462.441 758.4V870H395.241V592.4H498.441C528.441 592.4 546.841 610.8 546.841 643.2V675.6C546.841 701.6 533.241 714.8 521.641 720C536.041 725.6 547.241 739.6 547.241 757.6V850C547.241 857.2 548.841 864 550.841 868V870H484.041C481.241 866 479.241 859.2 479.241 851.2V770.8C479.241 762.8 477.241 758.4 469.641 758.4H462.441ZM724.15 671.6V794.8C724.15 846 694.95 874 650.15 874H638.15C590.95 874 564.15 845.2 564.15 794.8V671.6C564.15 621.2 585.75 589.6 637.75 589.6H650.15C702.55 589.6 724.15 621.6 724.15 671.6ZM654.15 800V664C654.15 654.4 651.35 649.6 644.15 649.6C636.95 649.6 634.15 654 634.15 664V800C634.15 808 636.95 812.8 644.15 812.8C651.35 812.8 654.15 808 654.15 800ZM739.7 745.2H802.1V807.2C802.1 812.8 803.7 815.6 808.5 815.6H810.1C813.7 815.6 815.7 812.4 815.7 807.2V592.4H884.9V808.8C884.9 846.8 863.7 873.6 821.3 873.6H797.7C756.9 873.6 739.7 849.6 739.7 813.2V745.2ZM903.616 592.4H1024.42V654H970.816V694.8H1014.02V758H970.816V807.2H1027.62V870H903.616V592.4ZM1121.25 815.6C1128.45 815.6 1130.05 810 1130.05 801.6V749.6H1196.45V804C1196.45 840 1177.65 874 1127.25 874H1116.05C1061.65 874 1042.45 843.6 1042.45 796.8V664C1042.45 621.6 1062.45 589.2 1114.45 589.2H1127.25C1176.85 589.2 1196.45 616.8 1196.45 656V699.2H1130.05V658.4C1130.05 650.4 1128.45 646 1121.25 646C1114.45 646 1112.45 649.6 1112.45 658.4V801.6C1112.45 810.4 1114.45 815.6 1121.25 815.6ZM1312.15 654.4V870H1244.95V654.4H1210.55V592.4H1346.15V654.4H1312.15Z" fill="#D33562"/>
<line x1="118.5" y1="620.987" x2="121.5" y2="1179.99" stroke="#D33562" stroke-width="5"/>
</svg>
