<?xml version="1.0" encoding="UTF-8"?>
<svg id="Layer_2" data-name="Layer 2" xmlns="http://www.w3.org/2000/svg" viewBox="0 0 52.68 52.68">
  <defs>
    <style>
      .cls-1 {
        fill: #231f20;
      }
    </style>
  </defs>
  <g id="Layer_1-2" data-name="Layer 1">
    <path class="cls-1" d="M43.77,28.09c-.85,8.16-7.47,14.84-15.63,15.69v8.9h-3.5v-8.9c-8.16-.85-14.89-7.52-15.74-15.69H0v-3.5h8.85c.85-8.21,7.58-14.89,15.79-15.69V0h3.5v8.9c8.21.79,14.84,7.47,15.63,15.69h8.9v3.5h-8.9ZM24.64,12.4c-6.25.85-11.45,5.99-12.24,12.19h12.24v-12.19ZM24.64,28.09h-12.24c.85,6.2,5.99,11.39,12.24,12.19v-12.19ZM40.28,24.59c-.79-6.2-5.94-11.34-12.14-12.19v12.19h12.14ZM28.14,28.09v12.19c6.15-.79,11.23-5.99,12.08-12.19h-12.08Z"/>
  </g>
</svg>