<?xml version="1.0" encoding="UTF-8"?>
<svg id="Layer_2" data-name="Layer 2" xmlns="http://www.w3.org/2000/svg" viewBox="0 0 5.96 8.59">
  <defs>
    <style>
      .cls-1 {
        fill: #231f20;
      }
    </style>
  </defs>
  <g id="Layer_1-2" data-name="Layer 1">
    <path class="cls-1" d="M5.96,4.44h-1.22c-.04.43-.2.79-.5,1.1s-.67.48-1.1.53v2.53h-.29v-2.53c-.43-.05-.79-.23-1.1-.53s-.47-.67-.5-1.09H0v-.29h1.24c.04-.43.21-.79.52-1.09s.67-.48,1.1-.52V0h.29v2.53c.43.04.79.21,1.1.52s.47.67.51,1.1h1.22v.29ZM2.85,4.15v-1.31c-.35.04-.65.18-.89.42s-.38.54-.42.88h1.31ZM2.85,5.75v-1.31h-1.31c.04.35.19.64.43.89s.54.39.88.42ZM4.44,4.15c-.04-.35-.18-.64-.42-.89s-.54-.38-.88-.42v1.31h1.31ZM4.44,4.44h-1.31v1.31c.35-.04.64-.19.89-.43s.38-.54.42-.88Z"/>
  </g>
</svg>